<svg width="502" height="229" viewBox="0 0 502 229" fill="none" xmlns="http://www.w3.org/2000/svg">
<g filter="url(#filter0_d_79_49)">
<path d="M41.4887 106.379C41.4887 106.379 43.6222 102.254 48.4987 99.0122C53.3753 95.7707 57.9471 95.476 57.9471 95.476V115.809C57.9471 115.809 53.0705 110.21 50.6322 108.737C48.194 107.263 41.4887 106.379 41.4887 106.379Z" fill="#FFFCEB"/>
<path d="M83.5491 106.674C83.5491 106.674 81.4156 102.548 76.5391 99.3069C71.6625 96.0654 67.0907 95.7708 67.0907 95.7708V116.104C67.0907 116.104 71.9673 110.505 74.4056 109.031C76.8439 107.558 83.5491 106.674 83.5491 106.674Z" fill="#FFFCEB"/>
<path d="M106.103 94.8867C106.103 94.8867 112.199 93.4133 116.466 97.8335C120.733 102.254 121.647 106.085 121.647 106.085L121.952 112.273H117.076V106.085C117.076 106.085 117.076 103.432 114.333 100.486C111.589 97.5389 106.103 94.8867 106.103 94.8867Z" fill="#9F6128"/>
<path d="M109.151 111.683L114.333 105.79L115.552 109.031L113.418 111.683L109.151 111.683Z" fill="#9F6128"/>
<rect x="91.4735" y="114.041" width="33.5265" height="4.12551" fill="#9F6128"/>
<path d="M91.4735 94.5921H95.7405V108.737H102.141L104.884 106.379L105.189 103.727L104.275 101.37L102.751 99.8963L100.922 99.6017H97.5692V95.7708H102.751L106.103 97.8336L108.542 100.78L109.151 105.201L107.627 109.326L105.494 111.389L102.751 112.273H91.4735V94.5921Z" fill="#ECBD77"/>
<path d="M70.7481 84.5729H78.063V94.592L70.7481 92.2346V84.5729Z" fill="#9F6128"/>
<rect x="60.9949" y="66.3029" width="17.068" height="5.89359" fill="#9F6128"/>
<path d="M60.9949 29.1733L67.7002 25.3425L68.005 57.1679H71.0528L70.7481 23.5744L78.0629 18.8595V63.9455H60.9949V29.1733Z" fill="#9F6128"/>
<path d="M88.1209 0L36.0025 31.236V102.843L13.7531 114.925L13.4484 209.812L4 215.705H50.0227C50.0227 215.705 50.3275 212.759 51.8514 210.401C53.3753 208.044 56.4232 205.686 56.4232 205.686C56.4232 205.686 49.1083 198.319 45.7557 189.774C42.403 181.228 36.9169 162.958 36.9169 162.958L37.5265 209.812H21.068V119.345L39.3552 108.147L43.0126 102.843V35.6562L81.7204 12.9659V102.843L88.1209 111.978V0Z" fill="#FFFCEB"/>
<path d="M63.4332 142.625C63.4332 142.625 65.2619 133.784 67.7002 130.838C70.1385 127.891 74.7102 126.123 76.8437 126.123C78.9772 126.123 84.7682 127.007 87.5112 130.838C90.2543 134.669 89.6448 140.857 89.6448 140.857C89.6448 140.857 85.6825 133.49 80.5012 132.606C75.3198 131.722 73.7959 132.311 70.748 135.258C67.7002 138.205 66.1762 146.161 66.1762 146.161V172.388C66.1762 172.388 68.6145 172.682 69.2241 173.566C69.8337 174.45 69.8337 177.397 69.8337 177.397L66.1762 177.986L62.8236 179.46L63.4332 142.625Z" fill="#FFFCEB"/>
<path d="M61.6623 142.33C61.6623 142.33 59.8335 133.49 57.3953 130.543C54.957 127.596 50.3852 125.828 48.2517 125.828C46.1182 125.828 40.3273 126.712 37.5842 130.543C34.8411 134.374 35.4507 140.562 35.4507 140.562C35.4507 140.562 39.4129 133.195 44.5943 132.311C49.7756 131.427 51.2995 132.016 54.3474 134.963C57.3953 137.91 58.9192 145.866 58.9192 145.866V172.093C58.9192 172.093 56.4809 172.387 55.8713 173.271C55.2618 174.156 55.2618 177.102 55.2618 177.102L58.9192 177.692L62.2718 179.165L61.6623 142.33Z" fill="#FFFCEB"/>
<rect x="25.0302" y="200.087" width="6.70529" height="5.89359" fill="#FFFCEB"/>
<path d="M68.6147 205.686C68.6147 205.686 71.6625 201.855 73.796 198.909C75.9295 195.962 78.6726 190.658 78.6726 190.658L78.3678 210.106H81.1109V216H75.6247C75.6247 216 75.0152 212.464 73.1865 210.106C71.3577 207.749 68.6147 205.686 68.6147 205.686Z" fill="#ECBD77"/>
<path d="M80.5013 186.827C80.5013 186.827 82.0252 181.817 83.8539 177.102C85.6826 172.388 87.8161 162.074 87.8161 162.074V210.401H117.38L125 216H80.5013V186.827Z" fill="#FFFCEB"/>
<path d="M96.0453 190.952L103.055 182.112L116.466 197.435L114.637 200.677H112.199L103.36 189.479L96.0453 198.909V190.952Z" fill="#ECBD77"/>
<rect x="25.0302" y="193.015" width="6.70529" height="5.89359" fill="#FFFCEB"/>
<path d="M56.7279 181.228C56.7279 181.228 57.9471 180.933 59.7758 181.817C61.6045 182.701 62.2141 183.29 62.2141 183.29C62.2141 183.29 62.8236 182.701 64.3476 181.817C65.8715 180.933 67.3954 180.933 67.3954 180.933C67.3954 180.933 70.7481 182.406 72.272 184.175C73.7959 185.943 75.0151 188.889 75.0151 188.889C75.0151 188.889 69.8337 184.764 66.7859 184.764C63.738 184.764 62.8236 186.827 62.8236 186.827C62.8236 186.827 59.7758 184.175 57.3375 184.764C54.8992 185.353 50.0226 188.889 50.0226 188.889C50.0226 188.889 50.3274 187.121 52.1561 184.764C53.9848 182.406 56.7279 181.228 56.7279 181.228Z" fill="#FFFCEB"/>
<rect x="25.0302" y="185.353" width="6.70529" height="5.89359" fill="#FFFCEB"/>
<path d="M92.0831 177.397H96.6549V200.087H114.942L114.028 205.686L91.4735 205.392L92.0831 177.397Z" fill="#ECBD77"/>
<rect x="25.0302" y="176.513" width="6.70529" height="5.89359" fill="#FFFCEB"/>
<rect x="25.0302" y="168.262" width="6.70529" height="5.89359" fill="#FFFCEB"/>
<path d="M35.0882 121.997L39.3552 109.916C39.3552 109.916 46.0605 109.621 51.8514 114.041C57.6423 118.461 59.1663 128.48 59.1663 128.48C59.1663 128.48 55.2041 120.229 47.5844 118.167C39.9648 116.104 35.0882 121.997 35.0882 121.997Z" fill="#FFFCEB"/>
<path d="M89.9496 121.412L85.6826 109.33C85.6826 109.33 78.9773 109.035 73.1864 113.456C67.3954 117.876 65.8715 127.895 65.8715 127.895C65.8715 127.895 69.8337 119.644 77.4534 117.581C85.073 115.518 89.9496 121.412 89.9496 121.412Z" fill="#FFFCEB"/>
<path d="M50.0226 189.479C50.0226 189.479 56.1183 189.184 57.9471 189.479C59.7758 189.774 62.2141 191.247 62.2141 191.247C62.2141 191.247 65.5667 190.068 67.3954 189.479C69.2241 188.889 74.7103 189.479 74.7103 189.479C74.7103 189.479 71.9672 191.542 70.1385 193.31C68.3098 195.078 66.1763 196.846 64.9571 197.435C63.738 198.025 60.9949 198.319 59.7758 197.435C58.5566 196.551 56.1183 194.783 54.5944 193.31C53.0705 191.836 50.0226 189.479 50.0226 189.479Z" fill="#FFFCEB"/>
<path d="M69.2242 142.035C70.1386 141.151 73.1864 139.089 77.4534 138.794C81.7204 138.499 85.0731 141.151 86.2922 142.33C87.5114 143.509 89.6449 147.634 89.6449 147.634L83.8539 144.393C83.8539 144.393 81.4156 142.919 77.4534 142.919C73.4912 142.919 70.7481 144.982 70.7481 144.982L65.262 148.518C65.262 148.518 68.3099 142.919 69.2242 142.035Z" fill="#FFFCEB"/>
<path d="M55.8136 142.058C54.8993 141.174 51.8514 139.111 47.5844 138.817C43.3174 138.522 39.9648 141.174 38.7456 142.353C37.5265 143.532 35.393 147.657 35.393 147.657L41.1839 144.416C41.1839 144.416 43.6222 142.942 47.5844 142.942C51.5466 142.942 54.2897 145.005 54.2897 145.005L59.7758 148.541C59.7758 148.541 56.728 142.942 55.8136 142.058Z" fill="#FFFCEB"/>
<path d="M69.2242 152.336C70.1386 153.137 73.1864 155.008 77.4534 155.275C81.7204 155.543 85.0731 153.137 86.2922 152.068C87.5114 150.999 89.6449 147.257 89.6449 147.257L83.8539 150.197C83.8539 150.197 81.4156 151.534 77.4534 151.534C73.4912 151.534 70.7481 149.663 70.7481 149.663L65.262 146.456C65.262 146.456 68.3099 151.534 69.2242 152.336Z" fill="#FFFCEB"/>
<path d="M55.8136 152.358C54.8993 153.16 51.8514 155.031 47.5844 155.298C43.3174 155.565 39.9648 153.16 38.7456 152.091C37.5265 151.022 35.393 147.28 35.393 147.28L41.1839 150.22C41.1839 150.22 43.6222 151.556 47.5844 151.556C51.5466 151.556 54.2897 149.686 54.2897 149.686L59.7758 146.478C59.7758 146.478 56.728 151.556 55.8136 152.358Z" fill="#FFFCEB"/>
<path d="M60.9949 75.1432H67.7002H78.0629V81.6262H67.7002V89.2878H60.9949V75.1432Z" fill="#9F6128"/>
<rect x="60.3853" y="94.5921" width="4.267" height="41.2551" fill="#9F6128"/>
<path d="M91.4735 72.7858L111.589 73.0805L115.247 78.09H91.4735V72.7858Z" fill="#ECBD77"/>
<path d="M91.4735 79.8582H117.076L119.209 85.1624H91.4735V79.8582Z" fill="#ECBD77"/>
<path d="M91.4735 86.9304H120.17L122.562 92.2346H91.4735V86.9304Z" fill="#ECBD77"/>
<ellipse cx="100.312" cy="104.316" rx="3.35264" ry="3.24147" fill="#ECBD77"/>
<path d="M91.6399 62.1774C91.6399 62.1774 93.9119 61.8827 98.7885 64.2401C103.665 66.5976 103.665 67.9236 103.665 67.9236L91.6399 67.9236L91.6399 62.1774Z" fill="#ECBD77"/>
<path d="M106.408 122.345C112.085 122.345 116.514 126.77 116.514 132.016C116.514 137.263 112.085 141.688 106.408 141.688C100.73 141.688 96.3022 137.263 96.3022 132.016C96.3024 126.77 100.731 122.345 106.408 122.345Z" stroke="#9F6128" stroke-width="6"/>
<path d="M106.103 128.828C108.246 128.828 109.808 130.482 109.808 132.311C109.808 134.14 108.245 135.794 106.103 135.794C103.961 135.794 102.398 134.14 102.398 132.311C102.398 130.483 103.961 128.828 106.103 128.828Z" stroke="#9F6128" stroke-width="6"/>
<path d="M92.3879 150.286L117.076 174.156L91.7783 173.566L92.3879 150.286Z" fill="#9F6128"/>
<path d="M117.545 188.878L109.011 177.385L120.592 177.385L117.545 188.878Z" fill="#ECBD77"/>
<path d="M121.038 173.272L95.0554 147.771L124.086 147.771L124.086 149.697L114.637 159.127L121.952 166.494L121.038 173.272Z" fill="#9F6128"/>
<ellipse cx="121.647" cy="142.625" rx="2.1335" ry="2.06276" fill="#9F6128"/>
<ellipse cx="121.647" cy="157.948" rx="1.52393" ry="1.4734" fill="#9F6128"/>
</g>
<path d="M193.312 122.056C197.152 123.272 200.16 125.32 202.336 128.2C204.512 131.016 205.6 134.504 205.6 138.664C205.6 144.552 203.296 149.096 198.688 152.296C194.144 155.432 187.488 157 178.72 157H143.968V89.8H176.8C184.992 89.8 191.264 91.368 195.616 94.504C200.032 97.64 202.24 101.896 202.24 107.272C202.24 110.536 201.44 113.448 199.84 116.008C198.304 118.568 196.128 120.584 193.312 122.056ZM159.424 101.512V117.352H174.88C178.72 117.352 181.632 116.68 183.616 115.336C185.6 113.992 186.592 112.008 186.592 109.384C186.592 106.76 185.6 104.808 183.616 103.528C181.632 102.184 178.72 101.512 174.88 101.512H159.424ZM177.568 145.288C181.664 145.288 184.736 144.616 186.784 143.272C188.896 141.928 189.952 139.848 189.952 137.032C189.952 131.464 185.824 128.68 177.568 128.68H159.424V145.288H177.568ZM268.734 105.352V157H254.43V151.048C250.718 155.528 245.342 157.768 238.302 157.768C233.438 157.768 229.022 156.68 225.054 154.504C221.15 152.328 218.078 149.224 215.838 145.192C213.598 141.16 212.478 136.488 212.478 131.176C212.478 125.864 213.598 121.192 215.838 117.16C218.078 113.128 221.15 110.024 225.054 107.848C229.022 105.672 233.438 104.584 238.302 104.584C244.894 104.584 250.046 106.664 253.758 110.824V105.352H268.734ZM240.894 145.48C244.67 145.48 247.806 144.2 250.302 141.64C252.798 139.016 254.046 135.528 254.046 131.176C254.046 126.824 252.798 123.368 250.302 120.808C247.806 118.184 244.67 116.872 240.894 116.872C237.054 116.872 233.886 118.184 231.39 120.808C228.894 123.368 227.646 126.824 227.646 131.176C227.646 135.528 228.894 139.016 231.39 141.64C233.886 144.2 237.054 145.48 240.894 145.48ZM313.992 104.584C320.392 104.584 325.544 106.504 329.448 110.344C333.416 114.184 335.4 119.88 335.4 127.432V157H320.424V129.736C320.424 125.64 319.528 122.6 317.736 120.616C315.944 118.568 313.352 117.544 309.96 117.544C306.184 117.544 303.176 118.728 300.936 121.096C298.696 123.4 297.576 126.856 297.576 131.464V157H282.6V105.352H296.904V111.4C298.888 109.224 301.352 107.56 304.296 106.408C307.24 105.192 310.472 104.584 313.992 104.584ZM380.079 154.504C378.607 155.592 376.783 156.424 374.607 157C372.495 157.512 370.287 157.768 367.983 157.768C361.775 157.768 357.007 156.2 353.679 153.064C350.351 149.928 348.687 145.32 348.687 139.24V93.928H363.663V106.504H376.431V118.024H363.663V139.048C363.663 141.224 364.207 142.92 365.295 144.136C366.383 145.288 367.951 145.864 369.999 145.864C372.303 145.864 374.351 145.224 376.143 143.944L380.079 154.504ZM440.569 105.352V157H426.361V150.856C424.377 153.096 422.009 154.824 419.257 156.04C416.505 157.192 413.529 157.768 410.329 157.768C403.545 157.768 398.169 155.816 394.201 151.912C390.233 148.008 388.249 142.216 388.249 134.536V105.352H403.225V132.328C403.225 140.648 406.713 144.808 413.689 144.808C417.273 144.808 420.153 143.656 422.329 141.352C424.505 138.984 425.593 135.496 425.593 130.888V105.352H440.569ZM471.819 157.768C467.531 157.768 463.339 157.256 459.243 156.232C455.147 155.144 451.883 153.8 449.451 152.2L454.443 141.448C456.747 142.92 459.531 144.136 462.795 145.096C466.059 145.992 469.259 146.44 472.395 146.44C478.731 146.44 481.899 144.872 481.899 141.736C481.899 140.264 481.035 139.208 479.307 138.568C477.579 137.928 474.923 137.384 471.339 136.936C467.115 136.296 463.627 135.56 460.875 134.728C458.123 133.896 455.723 132.424 453.675 130.312C451.691 128.2 450.699 125.192 450.699 121.288C450.699 118.024 451.627 115.144 453.483 112.648C455.403 110.088 458.155 108.104 461.739 106.696C465.387 105.288 469.675 104.584 474.603 104.584C478.251 104.584 481.867 105 485.451 105.832C489.099 106.6 492.107 107.688 494.475 109.096L489.483 119.752C484.939 117.192 479.979 115.912 474.603 115.912C471.403 115.912 469.003 116.36 467.403 117.256C465.803 118.152 465.003 119.304 465.003 120.712C465.003 122.312 465.867 123.432 467.595 124.072C469.323 124.712 472.075 125.32 475.851 125.896C480.075 126.6 483.531 127.368 486.219 128.2C488.907 128.968 491.243 130.408 493.227 132.52C495.211 134.632 496.203 137.576 496.203 141.352C496.203 144.552 495.243 147.4 493.323 149.896C491.403 152.392 488.587 154.344 484.875 155.752C481.227 157.096 476.875 157.768 471.819 157.768ZM163.504 216L156.256 205.68C155.36 205.744 154.656 205.776 154.144 205.776H145.84V216H141.04V182.4H154.144C158.496 182.4 161.92 183.44 164.416 185.52C166.912 187.6 168.16 190.464 168.16 194.112C168.16 196.704 167.52 198.912 166.24 200.736C164.96 202.56 163.136 203.888 160.768 204.72L168.736 216H163.504ZM154 201.696C157.04 201.696 159.36 201.04 160.96 199.728C162.56 198.416 163.36 196.544 163.36 194.112C163.36 191.68 162.56 189.824 160.96 188.544C159.36 187.232 157.04 186.576 154 186.576H145.84V201.696H154ZM186.715 212.256C189.755 212.256 192.203 211.232 194.059 209.184L196.555 212.16C195.435 213.504 194.011 214.528 192.283 215.232C190.587 215.936 188.683 216.288 186.571 216.288C183.883 216.288 181.499 215.744 179.419 214.656C177.339 213.536 175.723 211.984 174.571 210C173.451 208.016 172.891 205.776 172.891 203.28C172.891 200.816 173.435 198.592 174.523 196.608C175.643 194.624 177.163 193.088 179.083 192C181.035 190.88 183.227 190.32 185.659 190.32C187.963 190.32 190.059 190.848 191.947 191.904C193.835 192.928 195.339 194.384 196.459 196.272C197.579 198.16 198.155 200.336 198.187 202.8L177.979 206.736C178.619 208.496 179.691 209.856 181.195 210.816C182.731 211.776 184.571 212.256 186.715 212.256ZM185.659 194.208C184.059 194.208 182.619 194.576 181.339 195.312C180.091 196.048 179.115 197.088 178.411 198.432C177.707 199.744 177.355 201.28 177.355 203.04V203.52L193.627 200.448C193.211 198.592 192.283 197.088 190.843 195.936C189.403 194.784 187.675 194.208 185.659 194.208ZM218.218 190.32C221.45 190.32 224.01 191.264 225.898 193.152C227.818 195.008 228.778 197.744 228.778 201.36V216H224.17V201.888C224.17 199.424 223.578 197.568 222.394 196.32C221.21 195.072 219.514 194.448 217.306 194.448C214.81 194.448 212.842 195.184 211.402 196.656C209.962 198.096 209.242 200.176 209.242 202.896V216H204.634V190.56H209.05V194.4C209.978 193.088 211.226 192.08 212.794 191.376C214.394 190.672 216.202 190.32 218.218 190.32ZM250.698 214.512C250.026 215.088 249.194 215.536 248.202 215.856C247.21 216.144 246.186 216.288 245.13 216.288C242.57 216.288 240.586 215.6 239.178 214.224C237.77 212.848 237.066 210.88 237.066 208.32V184.992H241.674V190.56H248.97V194.352H241.674V208.128C241.674 209.504 242.01 210.56 242.682 211.296C243.386 212.032 244.378 212.4 245.658 212.4C247.066 212.4 248.266 212 249.258 211.2L250.698 214.512ZM279.399 190.56V216H274.983V211.968C273.959 213.376 272.663 214.448 271.095 215.184C269.527 215.92 267.799 216.288 265.911 216.288C263.447 216.288 261.239 215.744 259.287 214.656C257.335 213.568 255.799 212.048 254.679 210.096C253.591 208.112 253.047 205.84 253.047 203.28C253.047 200.72 253.591 198.464 254.679 196.512C255.799 194.56 257.335 193.04 259.287 191.952C261.239 190.864 263.447 190.32 265.911 190.32C267.735 190.32 269.415 190.672 270.951 191.376C272.487 192.048 273.767 193.056 274.791 194.4V190.56H279.399ZM266.295 212.256C267.895 212.256 269.351 211.888 270.663 211.152C271.975 210.384 272.999 209.328 273.735 207.984C274.471 206.608 274.839 205.04 274.839 203.28C274.839 201.52 274.471 199.968 273.735 198.624C272.999 197.248 271.975 196.192 270.663 195.456C269.351 194.72 267.895 194.352 266.295 194.352C264.663 194.352 263.191 194.72 261.879 195.456C260.599 196.192 259.575 197.248 258.807 198.624C258.071 199.968 257.703 201.52 257.703 203.28C257.703 205.04 258.071 206.608 258.807 207.984C259.575 209.328 260.599 210.384 261.879 211.152C263.191 211.888 264.663 212.256 266.295 212.256ZM295.846 216.288C293.382 216.288 291.478 215.616 290.134 214.272C288.79 212.896 288.118 210.976 288.118 208.512V180.384H292.726V208.128C292.726 209.504 293.046 210.56 293.686 211.296C294.358 212.032 295.35 212.4 296.662 212.4C297.462 212.4 298.214 212.24 298.918 211.92L299.158 215.712C298.102 216.096 296.998 216.288 295.846 216.288Z" fill="white"/>
<defs>
<filter id="filter0_d_79_49" x="0" y="0" width="129" height="224" filterUnits="userSpaceOnUse" color-interpolation-filters="sRGB">
<feFlood flood-opacity="0" result="BackgroundImageFix"/>
<feColorMatrix in="SourceAlpha" type="matrix" values="0 0 0 0 0 0 0 0 0 0 0 0 0 0 0 0 0 0 127 0" result="hardAlpha"/>
<feOffset dy="4"/>
<feGaussianBlur stdDeviation="2"/>
<feComposite in2="hardAlpha" operator="out"/>
<feColorMatrix type="matrix" values="0 0 0 0 0 0 0 0 0 0 0 0 0 0 0 0 0 0 0.25 0"/>
<feBlend mode="normal" in2="BackgroundImageFix" result="effect1_dropShadow_79_49"/>
<feBlend mode="normal" in="SourceGraphic" in2="effect1_dropShadow_79_49" result="shape"/>
</filter>
</defs>
</svg>
