<svg width="199" height="367" viewBox="0 0 199 367" fill="none" xmlns="http://www.w3.org/2000/svg">
<path d="M61.5 180.5C61.5 180.5 65 173.5 73 168C81 162.5 88.5 162 88.5 162V196.5C88.5 196.5 80.5 187 76.5 184.5C72.5 182 61.5 180.5 61.5 180.5Z" fill="#FFFCEB"/>
<path d="M130.5 181C130.5 181 127 174 119 168.5C111 163 103.5 162.5 103.5 162.5V197C103.5 197 111.5 187.5 115.5 185C119.5 182.5 130.5 181 130.5 181Z" fill="#FFFCEB"/>
<path d="M167.5 161C167.5 161 177.5 158.5 184.5 166C191.5 173.5 193 180 193 180L193.5 190.5H185.5V180C185.5 180 185.5 175.5 181 170.5C176.5 165.5 167.5 161 167.5 161Z" fill="#9F6128"/>
<path d="M172.5 189.5L181 179.5L183 185L179.5 189.5L172.5 189.5Z" fill="#9F6128"/>
<rect x="143.5" y="193.5" width="55" height="7" fill="#9F6128"/>
<path d="M143.5 160.5H150.5V184.5H161L165.5 180.5L166 176L164.5 172L162 169.5L159 169H153.5V162.5H162L167.5 166L171.5 171L172.5 178.5L170 185.5L166.5 189L162 190.5H143.5V160.5Z" fill="#ECBD77"/>
<path d="M109.5 143.5H121.5V160.5L109.5 156.5V143.5Z" fill="#9F6128"/>
<rect x="93.5" y="112.5" width="28" height="10" fill="#9F6128"/>
<path d="M93.5 49.5L104.5 43L105 97H110L109.5 40L121.5 32V108.5H93.5V49.5Z" fill="#9F6128"/>
<path d="M138 0L52.5 53V174.5L16 195L15.5 356L0 366H75.5C75.5 366 76 361 78.5 357C81 353 86 349 86 349C86 349 74 336.5 68.5 322C63 307.5 54 276.5 54 276.5L55 356H28V202.5L58 183.5L64 174.5V60.5L127.5 22V174.5L138 190V0Z" fill="#FFFCEB"/>
<path d="M97.5 242C97.5 242 100.5 227 104.5 222C108.5 217 116 214 119.5 214C123 214 132.5 215.5 137 222C141.5 228.5 140.5 239 140.5 239C140.5 239 134 226.5 125.5 225C117 223.5 114.5 224.5 109.5 229.5C104.5 234.5 102 248 102 248V292.5C102 292.5 106 293 107 294.5C108 296 108 301 108 301L102 302L96.5 304.5L97.5 242Z" fill="#FFFCEB"/>
<path d="M94.5947 241.5C94.5947 241.5 91.5947 226.5 87.5947 221.5C83.5947 216.5 76.0947 213.5 72.5947 213.5C69.0947 213.5 59.5947 215 55.0947 221.5C50.5947 228 51.5947 238.5 51.5947 238.5C51.5947 238.5 58.0947 226 66.5947 224.5C75.0947 223 77.5947 224 82.5947 229C87.5947 234 90.0947 247.5 90.0947 247.5V292C90.0947 292 86.0947 292.5 85.0947 294C84.0947 295.5 84.0947 300.5 84.0947 300.5L90.0947 301.5L95.5947 304L94.5947 241.5Z" fill="#FFFCEB"/>
<rect x="34.5" y="339.5" width="11" height="10" fill="#FFFCEB"/>
<path d="M106 349C106 349 111 342.5 114.5 337.5C118 332.5 122.5 323.5 122.5 323.5L122 356.5H126.5V366.5H117.5C117.5 366.5 116.5 360.5 113.5 356.5C110.5 352.5 106 349 106 349Z" fill="#ECBD77"/>
<path d="M125.5 317C125.5 317 128 308.5 131 300.5C134 292.5 137.5 275 137.5 275V357H186L198.5 366.5H125.5V317Z" fill="#FFFCEB"/>
<path d="M151 324L162.5 309L184.5 335L181.5 340.5H177.5L163 321.5L151 337.5V324Z" fill="#ECBD77"/>
<rect x="34.5" y="327.5" width="11" height="10" fill="#FFFCEB"/>
<path d="M86.5 307.5C86.5 307.5 88.5 307 91.5 308.5C94.5 310 95.5 311 95.5 311C95.5 311 96.5 310 99 308.5C101.5 307 104 307 104 307C104 307 109.5 309.5 112 312.5C114.5 315.5 116.5 320.5 116.5 320.5C116.5 320.5 108 313.5 103 313.5C98 313.5 96.5 317 96.5 317C96.5 317 91.5 312.5 87.5 313.5C83.5 314.5 75.5 320.5 75.5 320.5C75.5 320.5 76 317.5 79 313.5C82 309.5 86.5 307.5 86.5 307.5Z" fill="#FFFCEB"/>
<rect x="34.5" y="314.5" width="11" height="10" fill="#FFFCEB"/>
<path d="M144.5 301H152V339.5H182L180.5 349L143.5 348.5L144.5 301Z" fill="#ECBD77"/>
<rect x="34.5" y="299.5" width="11" height="10" fill="#FFFCEB"/>
<rect x="34.5" y="285.5" width="11" height="10" fill="#FFFCEB"/>
<path d="M51 207L58 186.5C58 186.5 69 186 78.5 193.5C88 201 90.5 218 90.5 218C90.5 218 84 204 71.5 200.5C59 197 51 207 51 207Z" fill="#FFFCEB"/>
<path d="M141 206.007L134 185.507C134 185.507 123 185.007 113.5 192.507C104 200.007 101.5 217.007 101.5 217.007C101.5 217.007 108 203.007 120.5 199.507C133 196.007 141 206.007 141 206.007Z" fill="#FFFCEB"/>
<path d="M75.5 321.5C75.5 321.5 85.5 321 88.5 321.5C91.5 322 95.5 324.5 95.5 324.5C95.5 324.5 101 322.5 104 321.5C107 320.5 116 321.5 116 321.5C116 321.5 111.5 325 108.5 328C105.5 331 102 334 100 335C98 336 93.5 336.5 91.5 335C89.5 333.5 85.5 330.5 83 328C80.5 325.5 75.5 321.5 75.5 321.5Z" fill="#FFFCEB"/>
<path d="M107 241C108.5 239.5 113.5 236 120.5 235.5C127.5 235 133 239.5 135 241.5C137 243.5 140.5 250.5 140.5 250.5L131 245C131 245 127 242.5 120.5 242.5C114 242.5 109.5 246 109.5 246L100.5 252C100.5 252 105.5 242.5 107 241Z" fill="#FFFCEB"/>
<path d="M85 241.038C83.5 239.538 78.5 236.038 71.5 235.538C64.5 235.038 59 239.538 57 241.538C55 243.538 51.5 250.538 51.5 250.538L61 245.038C61 245.038 65 242.538 71.5 242.538C78 242.538 82.5 246.038 82.5 246.038L91.5 252.038C91.5 252.038 86.5 242.538 85 241.038Z" fill="#FFFCEB"/>
<path d="M107 258.477C108.5 259.837 113.5 263.012 120.5 263.465C127.5 263.919 133 259.837 135 258.023C137 256.209 140.5 249.86 140.5 249.86L131 254.849C131 254.849 127 257.116 120.5 257.116C114 257.116 109.5 253.942 109.5 253.942L100.5 248.5C100.5 248.5 105.5 257.116 107 258.477Z" fill="#FFFCEB"/>
<path d="M85 258.515C83.5 259.876 78.5 263.05 71.5 263.504C64.5 263.957 59 259.876 57 258.062C55 256.248 51.5 249.899 51.5 249.899L61 254.887C61 254.887 65 257.155 71.5 257.155C78 257.155 82.5 253.98 82.5 253.98L91.5 248.538C91.5 248.538 86.5 257.155 85 258.515Z" fill="#FFFCEB"/>
<path d="M93.5 127.5H104.5H121.5V138.5H104.5V151.5H93.5V127.5Z" fill="#9F6128"/>
<rect x="92.5" y="160.5" width="7" height="70" fill="#9F6128"/>
<path d="M143.5 123.5L176.5 124L182.5 132.5H143.5V123.5Z" fill="#ECBD77"/>
<path d="M143.5 135.5H185.5L189 144.5H143.5V135.5Z" fill="#ECBD77"/>
<path d="M143.5 147.5H190.577L194.5 156.5H143.5V147.5Z" fill="#ECBD77"/>
<circle cx="158" cy="177" r="5.5" fill="#ECBD77"/>
<path d="M143.773 105.5C143.773 105.5 147.5 105 155.5 109C163.5 113 163.5 115.25 163.5 115.25L143.773 115.25L143.773 105.5Z" fill="#ECBD77"/>
<circle cx="168" cy="224" r="18.5" stroke="#9F6128" stroke-width="6"/>
<circle cx="167.5" cy="224.5" r="8" stroke="#9F6128" stroke-width="6"/>
<path d="M145 255L185.5 295.5L144 294.5L145 255Z" fill="#9F6128"/>
<path d="M186.269 320.48L172.269 300.98L191.269 300.98L186.269 320.48Z" fill="#ECBD77"/>
<path d="M192 294L149.376 250.732L197 250.732L197 254L181.5 270L193.5 282.5L192 294Z" fill="#9F6128"/>
<circle cx="193" cy="242" r="3.5" fill="#9F6128"/>
<circle cx="193" cy="268" r="2.5" fill="#9F6128"/>
</svg>
