<svg width="497" height="749" viewBox="0 0 497 749" fill="none" xmlns="http://www.w3.org/2000/svg">
<g opacity="0.5" filter="url(#filter0_d_55_105)">
<path d="M155.504 364.94C155.504 364.94 164.126 350.787 183.834 339.667C203.542 328.547 222.018 327.536 222.018 327.536V397.289C222.018 397.289 202.31 378.082 192.456 373.027C182.602 367.973 155.504 364.94 155.504 364.94Z" fill="#301E11"/>
<path d="M325.484 365.951C325.484 365.951 316.861 351.798 297.154 340.678C277.446 329.558 258.97 328.547 258.97 328.547V398.3C258.97 398.3 278.678 379.093 288.532 374.038C298.385 368.984 325.484 365.951 325.484 365.951Z" fill="#301E11"/>
<path d="M343.96 0L133.332 107.157V352.809L43.4156 394.257L42.1839 719.771L4 739.989H189.992C189.992 739.989 191.224 729.88 197.383 721.793C203.542 713.705 215.859 705.618 215.859 705.618C215.859 705.618 186.297 680.345 172.748 651.029C159.199 621.712 137.028 559.035 137.028 559.035L139.491 719.771H72.9773V409.42L146.882 371.005L161.662 352.809V122.321L318.093 44.4802V352.809L343.96 384.147V0Z" fill="#301E11"/>
<path d="M244.189 489.282C244.189 489.282 251.579 458.955 261.433 448.846C271.287 438.737 289.763 432.671 298.386 432.671C307.008 432.671 330.411 435.704 341.496 448.846C352.582 461.988 350.119 483.217 350.119 483.217C350.119 483.217 334.106 457.944 313.166 454.911C292.227 451.879 286.068 453.9 273.751 464.009C261.433 474.119 255.275 501.413 255.275 501.413V591.385C255.275 591.385 265.129 592.396 267.592 595.428C270.056 598.461 270.056 608.57 270.056 608.57L255.275 610.592L241.726 615.647L244.189 489.282Z" fill="#301E11"/>
<path d="M237.032 488.272C237.032 488.272 229.641 457.944 219.787 447.835C209.933 437.726 191.457 431.66 182.835 431.66C174.213 431.66 150.81 434.693 139.724 447.835C128.639 460.977 131.102 482.206 131.102 482.206C131.102 482.206 147.115 456.933 168.054 453.901C188.994 450.868 195.153 452.89 207.47 462.999C219.787 473.108 225.946 500.403 225.946 500.403V590.374C225.946 590.374 216.092 591.385 213.629 594.418C211.165 597.45 211.165 607.559 211.165 607.559L225.946 609.581L239.495 614.636L237.032 488.272Z" fill="#301E11"/>
<rect x="88.9895" y="686.411" width="27.0982" height="20.2183" fill="#301E11"/>
<path d="M313.166 640.92C313.166 640.92 319.325 623.734 326.715 607.559C334.106 591.385 342.728 556.003 342.728 556.003V721.793H462.206L493 741H313.166V640.92Z" fill="#301E11"/>
<rect x="88.9895" y="662.149" width="27.0982" height="20.2183" fill="#301E11"/>
<path d="M217.091 621.712C217.091 621.712 222.018 620.701 229.408 623.734C236.798 626.767 239.262 628.788 239.262 628.788C239.262 628.788 241.725 626.767 247.884 623.734C254.043 620.701 260.201 620.701 260.201 620.701C260.201 620.701 273.751 625.756 279.909 631.821C286.068 637.887 290.995 647.996 290.995 647.996C290.995 647.996 270.055 633.843 257.738 633.843C245.421 633.843 241.725 640.919 241.725 640.919C241.725 640.919 229.408 631.821 219.554 633.843C209.7 635.865 189.992 647.996 189.992 647.996C189.992 647.996 191.224 641.93 198.615 633.843C206.005 625.756 217.091 621.712 217.091 621.712Z" fill="#301E11"/>
<rect x="88.9895" y="635.865" width="27.0982" height="20.2183" fill="#301E11"/>
<rect x="88.9895" y="605.537" width="27.0982" height="20.2183" fill="#301E11"/>
<rect x="88.9895" y="577.232" width="27.0982" height="20.2183" fill="#301E11"/>
<path d="M129.637 418.519L146.882 377.071C146.882 377.071 173.98 376.06 197.383 391.224C220.786 406.388 226.945 440.759 226.945 440.759C226.945 440.759 210.932 412.453 180.138 405.377C149.345 398.3 129.637 418.519 129.637 418.519Z" fill="#301E11"/>
<path d="M351.35 416.511L334.106 375.063C334.106 375.063 307.008 374.052 283.605 389.216C260.202 404.38 254.043 438.751 254.043 438.751C254.043 438.751 270.056 410.445 300.849 403.369C331.643 396.292 351.35 416.511 351.35 416.511Z" fill="#301E11"/>
<path d="M189.992 650.018C189.992 650.018 214.627 649.007 222.018 650.018C229.408 651.029 239.262 656.083 239.262 656.083C239.262 656.083 252.811 652.04 260.201 650.018C267.592 647.996 289.763 650.018 289.763 650.018C289.763 650.018 278.678 657.094 271.287 663.16C263.897 669.225 255.275 675.291 250.348 677.313C245.421 679.334 234.335 680.345 229.408 677.313C224.481 674.28 214.627 668.214 208.469 663.16C202.31 658.105 189.992 650.018 189.992 650.018Z" fill="#301E11"/>
<path d="M267.592 487.26C271.287 484.228 283.605 477.151 300.849 476.14C318.093 475.129 331.643 484.228 336.57 488.271C341.496 492.315 350.119 506.468 350.119 506.468L326.716 495.348C326.716 495.348 316.862 490.293 300.849 490.293C284.837 490.293 273.751 497.37 273.751 497.37L251.58 509.5C251.58 509.5 263.897 490.293 267.592 487.26Z" fill="#301E11"/>
<path d="M213.396 487.338C209.7 484.306 197.383 477.229 180.139 476.218C162.894 475.207 149.345 484.306 144.418 488.349C139.491 492.393 130.869 506.546 130.869 506.546L154.272 495.426C154.272 495.426 164.126 490.371 180.139 490.371C196.151 490.371 207.237 497.448 207.237 497.448L229.408 509.578C229.408 509.578 217.091 490.371 213.396 487.338Z" fill="#301E11"/>
<path d="M267.592 522.596C271.287 525.346 283.605 531.764 300.849 532.681C318.093 533.598 331.643 525.346 336.57 521.679C341.496 518.011 350.119 505.175 350.119 505.175L326.716 515.261C326.716 515.261 316.862 519.845 300.849 519.845C284.837 519.845 273.751 513.427 273.751 513.427L251.58 502.424C251.58 502.424 263.897 519.845 267.592 522.596Z" fill="#301E11"/>
<path d="M213.396 522.674C209.7 525.424 197.383 531.842 180.139 532.759C162.894 533.676 149.345 525.424 144.418 521.757C139.491 518.089 130.869 505.253 130.869 505.253L154.272 515.339C154.272 515.339 164.126 519.923 180.139 519.923C196.151 519.923 207.237 513.505 207.237 513.505L229.408 502.502C229.408 502.502 217.091 519.923 213.396 522.674Z" fill="#301E11"/>
<path d="M357.509 324.503H374.753V373.027H400.619L411.705 364.94L412.937 355.842L409.242 347.754L403.083 342.7L395.692 341.689H382.143V328.547H403.083L416.632 335.623L426.486 345.732L428.949 360.896L422.791 375.049L414.168 382.125L403.083 385.158H357.509V324.503Z" fill="#ECBD77"/>
<path d="M265.128 705.618C265.128 705.618 277.446 692.476 286.068 682.367C294.69 672.258 305.776 654.061 305.776 654.061L304.544 720.782H315.629V741H293.458C293.458 741 290.995 728.869 283.604 720.782C276.214 712.694 265.128 705.618 265.128 705.618Z" fill="#ECBD77"/>
<path d="M375.985 655.072L404.315 624.745L458.511 677.313L451.121 688.433H441.267L405.546 650.018L375.985 682.367V655.072Z" fill="#ECBD77"/>
<path d="M359.972 608.57H378.448V686.411H452.352L448.657 705.618L357.509 704.607L359.972 608.57Z" fill="#ECBD77"/>
<path d="M357.509 249.696L438.803 250.707L453.584 267.892H357.509V249.696Z" fill="#ECBD77"/>
<path d="M357.509 273.958H460.975L469.597 292.154H357.509V273.958Z" fill="#ECBD77"/>
<path d="M357.509 298.22H473.481L483.146 316.416H357.509V298.22Z" fill="#ECBD77"/>
<ellipse cx="393.229" cy="357.864" rx="13.5491" ry="11.1201" fill="#ECBD77"/>
<path d="M358.181 213.303C358.181 213.303 367.363 212.292 387.071 220.379C406.778 228.466 406.778 233.016 406.778 233.016L358.181 233.016L358.181 213.303Z" fill="#ECBD77"/>
<path d="M462.87 647.956L428.381 608.53L475.187 608.53L462.87 647.956Z" fill="#ECBD77"/>
<path d="M416.632 325.515C416.632 325.515 441.267 320.46 458.511 335.624C475.756 350.788 479.451 363.93 479.451 363.93L480.683 385.159H460.975V363.93C460.975 363.93 460.975 354.831 449.889 344.722C438.804 334.613 416.632 325.515 416.632 325.515Z" fill="#9F6128"/>
<path d="M428.95 383.137L449.889 362.918L454.816 374.038L446.194 383.137L428.95 383.137Z" fill="#9F6128"/>
<rect x="357.509" y="391.224" width="135.491" height="14.1528" fill="#9F6128"/>
<path d="M273.751 290.132H303.312V324.504L273.751 316.416V290.132Z" fill="#9F6128"/>
<rect x="234.335" y="227.456" width="68.9773" height="20.2183" fill="#9F6128"/>
<path d="M234.335 100.081L261.433 86.9388L262.665 196.118H274.983L273.751 80.8734L303.313 64.6987V219.369H234.335V100.081Z" fill="#9F6128"/>
<path d="M234.335 257.783H261.433H303.313V280.023H261.433V306.307H234.335V257.783Z" fill="#9F6128"/>
<rect x="231.872" y="324.504" width="17.2443" height="141.528" fill="#9F6128"/>
<path d="M417.864 412.42C446.04 412.42 467.829 431.067 467.829 452.89C467.829 474.713 446.04 493.359 417.864 493.359C389.688 493.359 367.899 474.713 367.899 452.89C367.899 431.067 389.688 412.42 417.864 412.42Z" stroke="#9F6128" stroke-width="6"/>
<path d="M416.633 434.661C430.523 434.661 440.73 443.802 440.73 453.901C440.73 464 430.523 473.141 416.633 473.141C402.742 473.141 392.534 464 392.534 453.901C392.534 443.802 402.742 434.661 416.633 434.661Z" stroke="#9F6128" stroke-width="6"/>
<path d="M361.204 515.566L460.975 597.45L358.741 595.428L361.204 515.566Z" fill="#9F6128"/>
<path d="M476.987 594.418L371.984 506.938L489.305 506.938L489.305 513.545L451.121 545.894L480.683 571.167L476.987 594.418Z" fill="#9F6128"/>
<ellipse cx="479.451" cy="489.282" rx="8.62217" ry="7.0764" fill="#9F6128"/>
<ellipse cx="479.451" cy="541.85" rx="6.15869" ry="5.05457" fill="#9F6128"/>
</g>
<defs>
<filter id="filter0_d_55_105" x="0" y="0" width="497" height="749" filterUnits="userSpaceOnUse" color-interpolation-filters="sRGB">
<feFlood flood-opacity="0" result="BackgroundImageFix"/>
<feColorMatrix in="SourceAlpha" type="matrix" values="0 0 0 0 0 0 0 0 0 0 0 0 0 0 0 0 0 0 127 0" result="hardAlpha"/>
<feOffset dy="4"/>
<feGaussianBlur stdDeviation="2"/>
<feComposite in2="hardAlpha" operator="out"/>
<feColorMatrix type="matrix" values="0 0 0 0 0 0 0 0 0 0 0 0 0 0 0 0 0 0 0.25 0"/>
<feBlend mode="normal" in2="BackgroundImageFix" result="effect1_dropShadow_55_105"/>
<feBlend mode="normal" in="SourceGraphic" in2="effect1_dropShadow_55_105" result="shape"/>
</filter>
</defs>
</svg>
